# xmcd
#
# Track frame offsets:
#	150
#	12554
#	23426
#	38147
#	48784
#	62256
#	74606
#	87243
#	104853
#	116226
#	129444
#	143797
#	155849
#	175167
#	189007
#
# Disc length: 2707 seconds
#
# Revision: 0
# Processed by: cddbd v1.5.1PL0 Copyright (c) Steve Scherf et al.
# Submitted via: dBpowerAMP V4.0
#
DISCID=c90a910f
DTITLE=Various Artist - 15 Great Songs From the Mountain
DYEAR=1900
DGENRE=Bluegrass
TTITLE0=Harbor of Love-Johnson Mountain Boys
TTITLE1=Don't Go To The Mines-Johnson Mountain Boys
TTITLE2=House of Gold-Seldom Scene
TTITLE3=Dear Lord, Don't Leave Me Here-Country Gentlemen
TTITLE4=Where No One Stands Alone-Bluegrass Cardinals
TTITLE5=Sail On My Child-Doyle Lawson
TTITLE6=Oh Daniel Pray-Patty Loveless
TTITLE7=Angel Band-R Stanlley
TTITLE8=I'm Ready to Go-Ricky Scaggs
TTITLE9=Giving My Soul Back To Him-Bluegrass Band
TTITLE10=I'll Talk It All Over With Him
TTITLE11=There Is A Fountain
TTITLE12=Model Church
TTITLE13=Help Me Climb This Mountain
TTITLE14=I'm So Glad
EXTD=
EXTT0=
EXTT1=
EXTT2=
EXTT3=
EXTT4=
EXTT5=
EXTT6=
EXTT7=
EXTT8=
EXTT9=
EXTT10=
EXTT11=
EXTT12=
EXTT13=
EXTT14=
PLAYORDER=
